<mxfile host="app.diagrams.net" agent="Mozilla/5.0 (Windows NT 10.0; Win64; x64; rv:132.0) Gecko/20100101 Firefox/132.0" version="24.8.3">
  <diagram name="Page-1" id="64X3vzVXe_m_ssubkcoA">
    <mxGraphModel dx="2600" dy="1092" grid="1" gridSize="10" guides="1" tooltips="1" connect="1" arrows="1" fold="1" page="1" pageScale="1" pageWidth="850" pageHeight="1100" math="0" shadow="0">
      <root>
        <mxCell id="0" />
        <mxCell id="1" parent="0" />
        <mxCell id="AKya28XHsJgH9V_hGW3K-1" value="" style="rounded=0;whiteSpace=wrap;html=1;fillColor=#000000;strokeColor=#4D4D4D;" vertex="1" parent="1">
          <mxGeometry x="100" y="320" width="20" height="120" as="geometry" />
        </mxCell>
        <mxCell id="AKya28XHsJgH9V_hGW3K-2" value="" style="rounded=0;whiteSpace=wrap;html=1;fillColor=#000000;strokeColor=#4D4D4D;" vertex="1" parent="1">
          <mxGeometry x="120" y="420" width="40" height="20" as="geometry" />
        </mxCell>
        <mxCell id="AKya28XHsJgH9V_hGW3K-3" value="" style="rounded=0;whiteSpace=wrap;html=1;fillColor=#000000;strokeColor=#4D4D4D;" vertex="1" parent="1">
          <mxGeometry x="200" y="110" width="20" height="310" as="geometry" />
        </mxCell>
        <mxCell id="AKya28XHsJgH9V_hGW3K-4" value="" style="rounded=0;whiteSpace=wrap;html=1;fillColor=#000000;strokeColor=#4D4D4D;" vertex="1" parent="1">
          <mxGeometry x="30" y="380" width="70" height="20" as="geometry" />
        </mxCell>
        <mxCell id="AKya28XHsJgH9V_hGW3K-5" value="" style="rounded=0;whiteSpace=wrap;html=1;fillColor=#000000;strokeColor=#4D4D4D;" vertex="1" parent="1">
          <mxGeometry x="160" y="130" width="20" height="310" as="geometry" />
        </mxCell>
        <mxCell id="AKya28XHsJgH9V_hGW3K-6" value="" style="rounded=0;whiteSpace=wrap;html=1;fillColor=#000000;strokeColor=#4D4D4D;" vertex="1" parent="1">
          <mxGeometry x="260" y="110" width="20" height="310" as="geometry" />
        </mxCell>
        <mxCell id="AKya28XHsJgH9V_hGW3K-7" value="" style="rounded=0;whiteSpace=wrap;html=1;fillColor=#000000;strokeColor=#4D4D4D;" vertex="1" parent="1">
          <mxGeometry x="220" y="110" width="40" height="20" as="geometry" />
        </mxCell>
        <mxCell id="AKya28XHsJgH9V_hGW3K-8" value="" style="rounded=0;whiteSpace=wrap;html=1;fillColor=#000000;strokeColor=#4D4D4D;" vertex="1" parent="1">
          <mxGeometry x="310" y="130" width="20" height="310" as="geometry" />
        </mxCell>
        <mxCell id="AKya28XHsJgH9V_hGW3K-9" value="" style="rounded=0;whiteSpace=wrap;html=1;fillColor=#000000;strokeColor=#4D4D4D;" vertex="1" parent="1">
          <mxGeometry x="330" y="420" width="40" height="20" as="geometry" />
        </mxCell>
        <mxCell id="AKya28XHsJgH9V_hGW3K-10" value="" style="rounded=0;whiteSpace=wrap;html=1;fillColor=#000000;strokeColor=#4D4D4D;" vertex="1" parent="1">
          <mxGeometry x="430" y="110" width="20" height="310" as="geometry" />
        </mxCell>
        <mxCell id="AKya28XHsJgH9V_hGW3K-11" value="" style="rounded=0;whiteSpace=wrap;html=1;fillColor=#000000;strokeColor=#4D4D4D;" vertex="1" parent="1">
          <mxGeometry x="370" y="130" width="20" height="310" as="geometry" />
        </mxCell>
        <mxCell id="AKya28XHsJgH9V_hGW3K-12" value="" style="rounded=0;whiteSpace=wrap;html=1;fillColor=#000000;strokeColor=#4D4D4D;" vertex="1" parent="1">
          <mxGeometry x="450" y="110" width="40" height="20" as="geometry" />
        </mxCell>
        <mxCell id="AKya28XHsJgH9V_hGW3K-13" value="" style="rounded=0;whiteSpace=wrap;html=1;fillColor=#000000;strokeColor=#4D4D4D;" vertex="1" parent="1">
          <mxGeometry x="490" y="110" width="20" height="310" as="geometry" />
        </mxCell>
        <mxCell id="AKya28XHsJgH9V_hGW3K-14" value="" style="rounded=0;whiteSpace=wrap;html=1;fillColor=#000000;strokeColor=#4D4D4D;" vertex="1" parent="1">
          <mxGeometry x="820" y="320" width="20" height="120" as="geometry" />
        </mxCell>
        <mxCell id="AKya28XHsJgH9V_hGW3K-15" value="" style="rounded=0;whiteSpace=wrap;html=1;fillColor=#000000;strokeColor=#4D4D4D;" vertex="1" parent="1">
          <mxGeometry x="560" y="420" width="50" height="20" as="geometry" />
        </mxCell>
        <mxCell id="AKya28XHsJgH9V_hGW3K-16" value="" style="rounded=0;whiteSpace=wrap;html=1;fillColor=#000000;strokeColor=#4D4D4D;" vertex="1" parent="1">
          <mxGeometry x="610" y="130" width="20" height="310" as="geometry" />
        </mxCell>
        <mxCell id="AKya28XHsJgH9V_hGW3K-17" value="" style="rounded=0;whiteSpace=wrap;html=1;fillColor=#000000;strokeColor=#4D4D4D;" vertex="1" parent="1">
          <mxGeometry x="660" y="110" width="20" height="310" as="geometry" />
        </mxCell>
        <mxCell id="AKya28XHsJgH9V_hGW3K-18" value="" style="rounded=0;whiteSpace=wrap;html=1;fillColor=#000000;strokeColor=#4D4D4D;" vertex="1" parent="1">
          <mxGeometry x="680" y="110" width="40" height="20" as="geometry" />
        </mxCell>
        <mxCell id="AKya28XHsJgH9V_hGW3K-19" value="" style="rounded=0;whiteSpace=wrap;html=1;fillColor=#000000;strokeColor=#4D4D4D;" vertex="1" parent="1">
          <mxGeometry x="720" y="110" width="20" height="310" as="geometry" />
        </mxCell>
        <mxCell id="AKya28XHsJgH9V_hGW3K-20" value="" style="rounded=0;whiteSpace=wrap;html=1;fillColor=#000000;strokeColor=#4D4D4D;" vertex="1" parent="1">
          <mxGeometry x="760" y="130" width="20" height="310" as="geometry" />
        </mxCell>
        <mxCell id="AKya28XHsJgH9V_hGW3K-21" value="" style="rounded=0;whiteSpace=wrap;html=1;fillColor=#000000;strokeColor=#4D4D4D;" vertex="1" parent="1">
          <mxGeometry x="780" y="420" width="40" height="20" as="geometry" />
        </mxCell>
        <mxCell id="AKya28XHsJgH9V_hGW3K-22" value="" style="rounded=0;whiteSpace=wrap;html=1;fillColor=#000000;strokeColor=#4D4D4D;" vertex="1" parent="1">
          <mxGeometry x="550" y="130" width="20" height="310" as="geometry" />
        </mxCell>
        <mxCell id="AKya28XHsJgH9V_hGW3K-23" value="" style="rounded=0;whiteSpace=wrap;html=1;fillColor=#000000;strokeColor=#4D4D4D;" vertex="1" parent="1">
          <mxGeometry x="840" y="380" width="70" height="20" as="geometry" />
        </mxCell>
        <mxCell id="AKya28XHsJgH9V_hGW3K-24" value="" style="shape=crossbar;whiteSpace=wrap;html=1;rounded=1;" vertex="1" parent="1">
          <mxGeometry x="310" y="100" width="20" height="20" as="geometry" />
        </mxCell>
        <mxCell id="AKya28XHsJgH9V_hGW3K-25" value="2.1 mm" style="text;html=1;align=center;verticalAlign=middle;whiteSpace=wrap;rounded=0;" vertex="1" parent="1">
          <mxGeometry x="290" y="70" width="60" height="30" as="geometry" />
        </mxCell>
        <mxCell id="AKya28XHsJgH9V_hGW3K-26" value="" style="shape=crossbar;whiteSpace=wrap;html=1;rounded=1;" vertex="1" parent="1">
          <mxGeometry x="220" y="430" width="40" height="20" as="geometry" />
        </mxCell>
        <mxCell id="AKya28XHsJgH9V_hGW3K-27" value="1 mm" style="text;html=1;align=center;verticalAlign=middle;whiteSpace=wrap;rounded=0;" vertex="1" parent="1">
          <mxGeometry x="210" y="440" width="60" height="30" as="geometry" />
        </mxCell>
        <mxCell id="AKya28XHsJgH9V_hGW3K-28" value="" style="shape=crossbar;whiteSpace=wrap;html=1;rounded=1;" vertex="1" parent="1">
          <mxGeometry x="180" y="450" width="20" height="20" as="geometry" />
        </mxCell>
        <mxCell id="AKya28XHsJgH9V_hGW3K-29" value="0.55 mm" style="text;html=1;align=center;verticalAlign=middle;whiteSpace=wrap;rounded=0;" vertex="1" parent="1">
          <mxGeometry x="160" y="470" width="60" height="30" as="geometry" />
        </mxCell>
        <mxCell id="AKya28XHsJgH9V_hGW3K-30" value="" style="shape=crossbar;whiteSpace=wrap;html=1;rounded=1;" vertex="1" parent="1">
          <mxGeometry x="740" y="450" width="20" height="20" as="geometry" />
        </mxCell>
        <mxCell id="AKya28XHsJgH9V_hGW3K-31" value="0.55 mm" style="text;html=1;align=center;verticalAlign=middle;whiteSpace=wrap;rounded=0;" vertex="1" parent="1">
          <mxGeometry x="720" y="470" width="60" height="30" as="geometry" />
        </mxCell>
        <mxCell id="AKya28XHsJgH9V_hGW3K-32" value="" style="shape=crossbar;whiteSpace=wrap;html=1;rounded=1;" vertex="1" parent="1">
          <mxGeometry x="280" y="450" width="30" height="20" as="geometry" />
        </mxCell>
        <mxCell id="AKya28XHsJgH9V_hGW3K-33" value="3.5 mm" style="text;html=1;align=center;verticalAlign=middle;whiteSpace=wrap;rounded=0;" vertex="1" parent="1">
          <mxGeometry x="270" y="470" width="50" height="30" as="geometry" />
        </mxCell>
        <mxCell id="AKya28XHsJgH9V_hGW3K-34" value="" style="shape=crossbar;whiteSpace=wrap;html=1;rounded=1;" vertex="1" parent="1">
          <mxGeometry x="630" y="450" width="30" height="20" as="geometry" />
        </mxCell>
        <mxCell id="AKya28XHsJgH9V_hGW3K-35" value="3.5 mm" style="text;html=1;align=center;verticalAlign=middle;whiteSpace=wrap;rounded=0;" vertex="1" parent="1">
          <mxGeometry x="620" y="470" width="50" height="30" as="geometry" />
        </mxCell>
        <mxCell id="AKya28XHsJgH9V_hGW3K-36" value="" style="shape=crossbar;whiteSpace=wrap;html=1;rounded=1;" vertex="1" parent="1">
          <mxGeometry x="390" y="450" width="40" height="20" as="geometry" />
        </mxCell>
        <mxCell id="AKya28XHsJgH9V_hGW3K-37" value="4.4 mm" style="text;html=1;align=center;verticalAlign=middle;whiteSpace=wrap;rounded=0;" vertex="1" parent="1">
          <mxGeometry x="385" y="470" width="50" height="30" as="geometry" />
        </mxCell>
        <mxCell id="AKya28XHsJgH9V_hGW3K-38" value="" style="shape=crossbar;whiteSpace=wrap;html=1;rounded=1;" vertex="1" parent="1">
          <mxGeometry x="510" y="450" width="40" height="20" as="geometry" />
        </mxCell>
        <mxCell id="AKya28XHsJgH9V_hGW3K-39" value="4.4 mm" style="text;html=1;align=center;verticalAlign=middle;whiteSpace=wrap;rounded=0;" vertex="1" parent="1">
          <mxGeometry x="505" y="470" width="50" height="30" as="geometry" />
        </mxCell>
        <mxCell id="AKya28XHsJgH9V_hGW3K-40" value="" style="endArrow=none;html=1;rounded=0;" edge="1" parent="1">
          <mxGeometry width="50" height="50" relative="1" as="geometry">
            <mxPoint x="410" y="420" as="sourcePoint" />
            <mxPoint x="410" y="90" as="targetPoint" />
          </mxGeometry>
        </mxCell>
        <mxCell id="AKya28XHsJgH9V_hGW3K-41" value="" style="endArrow=none;html=1;rounded=0;" edge="1" parent="1">
          <mxGeometry width="50" height="50" relative="1" as="geometry">
            <mxPoint x="410" y="90" as="sourcePoint" />
            <mxPoint x="470" y="90" as="targetPoint" />
          </mxGeometry>
        </mxCell>
        <mxCell id="AKya28XHsJgH9V_hGW3K-42" value="" style="endArrow=none;html=1;rounded=0;" edge="1" parent="1">
          <mxGeometry width="50" height="50" relative="1" as="geometry">
            <mxPoint x="470" y="100" as="sourcePoint" />
            <mxPoint x="470" y="80" as="targetPoint" />
          </mxGeometry>
        </mxCell>
        <mxCell id="AKya28XHsJgH9V_hGW3K-43" value="" style="endArrow=none;html=1;rounded=0;" edge="1" parent="1">
          <mxGeometry width="50" height="50" relative="1" as="geometry">
            <mxPoint x="420" y="420" as="sourcePoint" />
            <mxPoint x="400" y="420" as="targetPoint" />
          </mxGeometry>
        </mxCell>
        <mxCell id="AKya28XHsJgH9V_hGW3K-44" value="23.4 mm" style="text;html=1;align=center;verticalAlign=middle;whiteSpace=wrap;rounded=0;" vertex="1" parent="1">
          <mxGeometry x="375" y="60" width="60" height="30" as="geometry" />
        </mxCell>
        <mxCell id="AKya28XHsJgH9V_hGW3K-45" value="" style="shape=crossbar;whiteSpace=wrap;html=1;rounded=1;direction=south;" vertex="1" parent="1">
          <mxGeometry y="380" width="20" height="20" as="geometry" />
        </mxCell>
        <mxCell id="AKya28XHsJgH9V_hGW3K-46" value="0.5 mm" style="text;html=1;align=center;verticalAlign=middle;whiteSpace=wrap;rounded=0;" vertex="1" parent="1">
          <mxGeometry x="-20" y="400" width="60" height="30" as="geometry" />
        </mxCell>
        <mxCell id="AKya28XHsJgH9V_hGW3K-47" value="" style="endArrow=none;html=1;rounded=0;" edge="1" parent="1">
          <mxGeometry width="50" height="50" relative="1" as="geometry">
            <mxPoint x="70" y="410" as="sourcePoint" />
            <mxPoint x="90" y="410" as="targetPoint" />
          </mxGeometry>
        </mxCell>
        <mxCell id="AKya28XHsJgH9V_hGW3K-48" value="" style="endArrow=none;html=1;rounded=0;" edge="1" parent="1">
          <mxGeometry width="50" height="50" relative="1" as="geometry">
            <mxPoint x="139.93" y="470" as="sourcePoint" />
            <mxPoint x="139.93" y="450" as="targetPoint" />
          </mxGeometry>
        </mxCell>
        <mxCell id="AKya28XHsJgH9V_hGW3K-49" value="6.6 mm" style="text;html=1;align=center;verticalAlign=middle;whiteSpace=wrap;rounded=0;" vertex="1" parent="1">
          <mxGeometry x="60" y="450" width="20" height="30" as="geometry" />
        </mxCell>
        <mxCell id="AKya28XHsJgH9V_hGW3K-50" value="" style="endArrow=none;html=1;rounded=0;" edge="1" parent="1">
          <mxGeometry width="50" height="50" relative="1" as="geometry">
            <mxPoint x="80" y="410" as="sourcePoint" />
            <mxPoint x="140" y="460" as="targetPoint" />
            <Array as="points">
              <mxPoint x="80" y="460" />
            </Array>
          </mxGeometry>
        </mxCell>
        <mxCell id="AKya28XHsJgH9V_hGW3K-51" value="" style="shape=crossbar;whiteSpace=wrap;html=1;rounded=1;direction=south;" vertex="1" parent="1">
          <mxGeometry x="910" y="320" width="20" height="60" as="geometry" />
        </mxCell>
        <mxCell id="AKya28XHsJgH9V_hGW3K-52" value="&lt;div&gt;2 mm&lt;/div&gt;" style="text;html=1;align=center;verticalAlign=middle;whiteSpace=wrap;rounded=0;" vertex="1" parent="1">
          <mxGeometry x="870" y="330" width="60" height="30" as="geometry" />
        </mxCell>
      </root>
    </mxGraphModel>
  </diagram>
</mxfile>
